<?xml version="1.0" encoding="UTF-8"?>
<svg id="Layer_2" data-name="Layer 2" xmlns="http://www.w3.org/2000/svg" viewBox="0 0 695.53 303">
  <defs>
    <style>
      .cls-1 {
        fill: #231f20;
      }
    </style>
  </defs>
  <path class="cls-1" d="m114.76,255.5c7.4,0,13.62-5.02,15.45-11.84.36-1.33.55-2.72.55-4.16,0-8.84-7.16-16-16-16s-16,7.16-16,16c0,1.44.19,2.83.55,4.16,1.83,6.82,8.05,11.84,15.45,11.84Z"/>
  <path class="cls-1" d="m580.76,223.5c-8.84,0-16,7.16-16,16,0,1.44.19,2.83.55,4.16,1.83,6.82,8.06,11.84,15.45,11.84s13.62-5.02,15.45-11.84c.36-1.33.55-2.72.55-4.16,0-8.84-7.16-16-16-16Z"/>
  <path class="cls-1" d="m695.53,240.61v-27.65c0-5.54-2.97-10.65-7.79-13.38l-9.83-5.58-14.54-51.28c-2.77-9.75-10.44-17.35-20.23-20.01l-68.59-18.63c-5-1.36-9.55-4.04-13.16-7.76l-47.83-49.29C484.38,16.97,444.26,0,402.36,0H14.95C6.69,0,0,6.7,0,14.96v226.08c0,8.26,6.7,14.96,14.96,14.96h38.48c7.26,27.07,31.97,47,61.33,47s54.07-19.93,61.33-47h343.34c7.26,27.07,31.97,47,61.33,47,29.36,0,54.07-19.93,61.33-47h38.04c8.5,0,15.39-6.89,15.39-15.39h0Zm-310.12-68.11c0-4.69,3.81-8.5,8.5-8.5h25.5c4.69,0,8.5,3.81,8.5,8.5s-3.81,8.5-8.5,8.5h-25.5c-4.69,0-8.5-3.81-8.5-8.5ZM76.27,239.5c0-21.23,17.27-38.5,38.5-38.5s38.5,17.27,38.5,38.5c0,5.9-1.33,11.5-3.72,16.5-6.19,13-19.45,22-34.78,22s-28.59-9-34.78-22c-2.39-5-3.72-10.6-3.72-16.5Zm-41.66-43h-13.36c-2.02,0-3.67-1.64-3.67-3.67v-39.17c0-2.02,1.64-3.67,3.67-3.67h7.05c1.8,0,3.33,1.31,3.62,3.08l6.31,39.17c.36,2.23-1.36,4.25-3.62,4.25Zm157.72-59.5H60.14c-4.9,0-8.87-3.97-8.87-8.87V33.87c0-4.9,3.97-8.87,8.87-8.87h132.18v112Zm20.59,27h25.5c4.69,0,8.5,3.81,8.5,8.5s-3.81,8.5-8.5,8.5h-25.5c-4.69,0-8.5-3.81-8.5-8.5s3.81-8.5,8.5-8.5Zm128.59-27h-132.17V25h117.03c4.36,0,8.07,3.16,8.76,7.47l15.15,94.25c.87,5.39-3.3,10.28-8.76,10.28Zm196.25-19.35l-1.1,1.04c-12.45,11.76-28.92,18.31-46.04,18.31h-47.93c-17.78,0-34.83-7.06-47.4-19.63l-4.33-4.33c-9.78-9.78-16.3-22.35-18.65-35.98l-7.63-44.17c-.71-4.12,2.46-7.88,6.64-7.88h31.07c34.94,0,68.93,14.38,93.26,39.44l42.33,43.63c2.61,2.69,2.52,7.01-.21,9.58Zm81.52,121.85c0,5.9-1.33,11.5-3.72,16.5-6.19,13-19.45,22-34.78,22-15.33,0-28.59-9-34.78-22-2.39-5-3.72-10.6-3.72-16.5,0-21.23,17.27-38.5,38.5-38.5s38.5,17.27,38.5,38.5Zm30.28-52.7l-12.48-1.9c-1.67-.25-3.11-1.3-3.87-2.8l-12.43-24.51c-1.76-3.48.76-7.59,4.66-7.59h17.96c2.37,0,4.45,1.6,5.05,3.9l6.95,26.41c.96,3.64-2.12,7.06-5.84,6.5Z"/>
</svg>