<?xml version="1.0" encoding="UTF-8"?>
<svg id="Laag_1" data-name="Laag 1" xmlns="http://www.w3.org/2000/svg" viewBox="0 0 303.4 335.41">
  <path d="m12.43,210.9c.24,3.81,1.95,5.85,5.5,7.15,12.58,4.6,25.66,6.77,38.92,8.04,12.56,1.2,25.13,2.39,37.7,3.42,3.85.32,7.74.05,11.61.14,3.15.07,6.3.36,9.46.41,4.52.07,9.05-.01,13.57.03,1.37.01,2.79.06,4.09.43,5.77,1.64,11.62,1.06,17.45.63.94-.07,1.77-1.23,2.7-1.8.63-.38,1.35-.83,2.04-.86,3.09-.13,6.19-.06,9.28-.16,5.26-.16,10.52-.46,15.78-.57,2.82-.06,5.66.28,8.48.19,5.52-.18,11.04-.52,16.55-.83,5.91-.34,11.83-.67,17.73-1.11,8.72-.65,17.43-1.4,26.15-2.1,1.9-.15,3.84-.08,5.71-.4,6.73-1.15,13.43-2.42,20.15-3.63.84-.15,1.72-.11,2.54-.33,1.75-.47,3.46-1.07,5.19-1.6,1.94-.59,3.91-1.11,5.83-1.78.78-.27,1.57-.73,2.17-1.3,1.54-1.43,1.13-2.99-.82-3.8-3.87-1.6-7.8-.68-11.7-.32-10.35.97-20.69,2.1-31.05,2.97-11.21.94-22.45,1.62-33.67,2.49-8.92.69-17.82,1.75-26.75,2.15-10.39.47-20.8.39-31.2.58-1.43.03-2.25-.49-2.37-1.98-.06-.78-.3-1.56-.31-2.34-.12-13.17-.26-26.34-.31-39.5-.02-6.58.22-13.16.21-19.75-.02-11.78-.17-23.57-.22-35.35-.04-10.33-.04-20.66-.01-30.99,0-3.03.24-6.05.23-9.08-.05-12.17-.22-24.34-.23-36.51,0-7.04.21-14.08.34-21.13.04-2.05-.3-3.75-2.67-4.43-1.73-.5-1.92-3.39-1.06-4.84.65-1.1,1.93-2.25,3.11-2.5,1.39-.29,2.84,1.98,2.99,3.84.34,4.12.57,8.26,1.13,12.35,1.4,10.29,2.88,20.57,4.49,30.83,1.87,11.95,3.93,23.87,5.87,35.81.64,3.96.99,7.97,1.76,11.91,1.01,5.16,2.2,10.28,3.5,15.38,1.83,7.2,3.66,14.41,5.82,21.51,1.41,4.64,3.36,9.12,5.15,13.65,2.48,6.27,4.27,12.48,3.35,19.51-.8,6.13-3.24,11.12-6.95,15.79-.62.77-1.04,2.06-.86,2.98.1.55,1.55,1.21,2.38,1.19,4.06-.09,8.13-.39,12.19-.62.59-.03,1.18-.19,1.77-.17,6.35.21,12.5-1.2,18.71-2.17.65-.1,1.31-.28,1.95-.24,3.24.23,5.69-1.18,7.79-3.51.35-.39,1.24-.7,1.69-.53,2.53.93,5.28,1.06,7.53,3.07,1.39,1.24,3.71,1.57,5.68,2.02,3.25.75,6.56,1.17,9.81,1.92,1.23.28,2.28,1.29,3.51,1.6,3.75.94,7.54,1.73,11.33,2.53,5.85,1.23,11.8,2.12,17.55,3.73,4.78,1.34,9.59,3.01,13.04,7.02,1.72,2,1.63,3.44.31,5.64-1.95,3.25-5.05,4.73-8.15,6.53-6.06,3.51-12.69,4.83-19.36,6.4-11.38,2.68-22.99,3.78-34.47,5.73-8.47,1.44-17.31,1.35-25.36,4.7-6.66,2.77-12.05,7.36-16.4,13.2-4.18,5.62-5.53,12.28-7.5,18.75-.75,2.46-1.85,4.8-2.74,7.22-3.45,9.39-6.42,18.98-10.47,28.1-3.17,7.16-6.93,14.2-12.42,20.03-.18.19-.35.4-.55.57-3.93,3.44-4.59,3.61-8.03-.05-4.42-4.72-7.81-10.05-10.45-15.92-1.56-3.48-3.36-6.85-4.87-10.35-1.14-2.63-1.96-5.4-2.98-8.09-1.02-2.69-2.19-5.32-3.15-8.03-1.07-3.03-1.93-6.13-2.96-9.17-.95-2.79-2.01-5.55-3-8.33-.16-.43-.28-.88-.36-1.33-.78-4.38-2.68-8.09-5.19-11.86-4.28-6.45-10-11.09-16.49-14.62-3.99-2.17-8.8-3.11-13.37-3.85-9.22-1.5-18.65-1.9-27.74-3.89-7.81-1.71-15.7-2.44-23.52-3.8-4.87-.84-9.51-2.49-13.88-4.85-.86-.47-1.77-.93-2.71-1.16-3.86-.91-5.4-4.59-8.15-6.82-1.46-1.19.12-3.43,2.69-3.79Z"/>
  <path d="m124.36,147.94c.65-2.09,1.27-4.19,1.96-6.27,1.19-3.62,3.03-7.15,3.47-10.86.41-3.42,2.05-6.32,2.65-9.57.16-.89.2-1.85.04-2.73-.25-1.43-.28-2.68.76-3.88.41-.47.42-1.33.51-2.03.22-1.67.26-3.38.65-5.02.13-.56,1.08-.93,1.66-1.39.41.58,1.2,1.18,1.16,1.73-.1,1.38-.43,2.78-.91,4.09-1.09,2.99-2.63,5.75-2.32,9.22.18,2.02-.89,4.15-1.42,6.23-.83,3.23-1.5,6.5-2.56,9.65-1.13,3.36-2.61,6.6-3.98,9.87-.2.49-.63.87-.96,1.31-.25-.12-.49-.23-.74-.35Z"/>
  <path d="m148.48,26.12c.08,1.42.34,2.85.2,4.24-.38,3.65-.97,7.29-1.42,10.93-.93,7.41-1.83,14.83-2.76,22.24-.08.6-.29,1.18-.43,1.77-.27.01-.55.03-.82.04-.21-1.25-.53-2.5-.58-3.75-.04-1.03.17-2.1.42-3.12,2.49-10.01,2.31-20.35,3.81-30.47.1-.65.36-1.28.55-1.91.35.01.69.02,1.04.03Z"/>
  <path d="m138.11,98.03c-.22-.53-.66-1.08-.63-1.59.12-1.88.4-3.74.62-5.62.3-2.55.55-5.1.9-7.64.67-5.02,1.37-10.03,2.14-15.03.06-.42.7-.76,1.07-1.14.18.5.58,1.03.52,1.49-.51,3.56-1.13,7.09-1.66,10.65-.22,1.49-.32,3-.47,4.51-.18,1.83-.31,3.67-.55,5.49-.33,2.53-.74,5.05-1.14,7.56-.07.42-.23.83-.35,1.24l-.44.08Z"/>
  <path d="m123.63,151.4c.32,1.66-.05,3.25-.94,4.72-.15.24-.73.42-1.02.33-.26-.08-.63-.64-.56-.86.49-1.5,1.09-2.96,1.66-4.44.29.09.58.17.87.26Z"/>
  <path d="m18.44,207.04c-1.53.88-2.84,1.63-4.15,2.38-.21-.21-.42-.41-.62-.62.42-.56.73-1.32,1.29-1.65.9-.52,1.89-1.48,3.49-.11Z"/>
</svg>